<svg width="19" height="11" viewBox="0 0 19 11" fill="none" xmlns="http://www.w3.org/2000/svg">
<path d="M13.5888 0.925414L18.412 4.96874C18.5027 5.01463 18.5777 5.07939 18.6298 5.15674C18.6818 5.23409 18.7091 5.32141 18.709 5.41021C18.7096 5.50142 18.6813 5.59112 18.627 5.67014C18.5989 5.71336 18.5636 5.75296 18.522 5.78772C18.502 5.80452 18.4806 5.82015 18.458 5.83448L13.5913 9.91357C13.4758 10.0102 13.3193 10.0645 13.1561 10.0645C12.9929 10.0645 12.8363 10.0102 12.7208 9.91357C12.6055 9.81675 12.5408 9.68555 12.5408 9.54877C12.5408 9.41199 12.6055 9.2808 12.7208 9.18398L16.6088 5.92594L0.743648 5.92593C0.662776 5.92593 0.582708 5.91257 0.508002 5.88661C0.433295 5.86065 0.36535 5.8226 0.308202 5.77463C0.251056 5.72667 0.205785 5.66973 0.174911 5.60708C0.144037 5.54443 0.128232 5.4773 0.128339 5.40951C0.128339 5.27273 0.193113 5.14155 0.308507 5.04484C0.4239 4.94812 0.580457 4.89378 0.743648 4.89378L16.5858 4.89379L12.7208 1.65431C12.6055 1.5575 12.5408 1.4263 12.5408 1.28952C12.5408 1.15274 12.6055 1.02154 12.7208 0.924727C12.778 0.876834 12.846 0.83888 12.9207 0.813037C12.9955 0.787196 13.0756 0.773975 13.1565 0.774134C13.3188 0.774725 13.4742 0.829109 13.5888 0.925414Z" fill="white"/>
</svg>
